<svg id="Layer_1" data-name="Layer 1" xmlns="http://www.w3.org/2000/svg" viewBox="0 0 579.51 263.22">
  <defs>
    <style>
      .cls-1 {
        fill: none;
        stroke: #000;
        stroke-miterlimit: 10;
      }
    </style>
  </defs>
  <title>ISM</title>
  <path class="cls-1" d="M211,431q.5,98,1,196l55.5-1.5v-193A42.54,42.54,0,0,1,211,431Z" transform="translate(-210.49 -368.34)"/>
  <path class="cls-1" d="M454.5,443.5l27-41a140.92,140.92,0,0,0-40-24,138.34,138.34,0,0,0-64-9c-13.92,1.45-31.52,3.28-49,16a74.63,74.63,0,0,0-25,30c-9.15,20.46-9.4,47.52,4,68,11.21,17.13,28.66,24.59,46,32,7.87,3.36,14.46,6.18,24,8s13.21,1,23,4,14.92,6.49,17,8c5,3.62,9.15,6.62,11,12,3.28,9.53-3.27,19-4,20-9.32,13-28.38,12.2-33,12-7.42-.33-14.11-2.24-26-8a230.24,230.24,0,0,1-44-28l-34,41a158.59,158.59,0,0,0,23,19,156.68,156.68,0,0,0,48,22c14.08,3.59,49.88,12.71,85-5,8.68-4.37,24.49-12.61,35-31,11.08-19.38,9.6-38.37,9-45-.64-7-2.08-22.81-13-37-12.42-16.14-30.5-21.66-48-27-40.92-12.49-50-15-50-15-2.9-.8-9.95-2.74-15-9-1.09-1.35-7.05-9.05-5-19,2.1-10.21,11-14.95,13-16,6.6-3.51,12.56-3.05,24-2,7.77.71,18.61,1.79,32,7A106.4,106.4,0,0,1,454.5,443.5Z" transform="translate(-210.49 -368.34)"/>
  <path class="cls-1" d="M508.5,375.5v251h56q1-77.5,2-155,32.5,66.5,65,133l34,2,68-138v158h56v-251l-75-1-66,137q-32-68.5-64-137Z" transform="translate(-210.49 -368.34)"/>
  <path class="cls-1" d="M240.5,372.5c-14.91-.27-27,11.9-28,26-1.09,15.67,11.8,30.29,28,30,15.83-.28,28.07-14.68,27-30C266.54,384.75,255,372.76,240.5,372.5Z" transform="translate(-210.49 -368.34)"/>
</svg>
